<?xml version="1.0" standalone="no"?><!DOCTYPE svg PUBLIC "-//W3C//DTD SVG 1.1//EN" "http://www.w3.org/Graphics/SVG/1.1/DTD/svg11.dtd"><svg t="1524128756607" class="icon" style="" viewBox="0 0 1024 1024" version="1.1" xmlns="http://www.w3.org/2000/svg" p-id="1085" xmlns:xlink="http://www.w3.org/1999/xlink" width="20" height="20"><defs><style type="text/css"></style></defs><path d="M620.574 492.674c10.52 0 18.957 8.438 18.957 19.326 0 10.52-8.438 19.325-18.957 19.325H514.168l-69.769 120.346c-2.998 5.62-10.031 7.577-15.475 4.281-5.687-3.06-7.581-10.151-4.34-15.536l69.773-120.957c-0.794-2.324-1.651-4.767-1.651-7.459V355.938c0-10.513 8.56-19.075 19.263-19.075 10.578 0 19.017 8.563 19.017 19.075v136.735h89.588v0.001z" fill="#707070" p-id="1086"></path><path d="M882.216 532.023h-58.093c-11.281 0-20.331-9.149-20.331-20.221 0-10.848 9.05-19.572 20.331-19.572H902.961c33.518 0 47.254 6.169 46.288 37.663-2.34 52.989-13.936 102.574-33.084 149.395l-0.857 1.707c-22.235 52.989-54.588 100.866-94.065 140.452-79.056 79.38-188.33 127.898-309.212 127.898-59.267 0-115.769-11.489-167.376-33.409l-1.698-0.641c-52.89-22.137-100.875-54.271-140.245-93.849-79.38-78.955-128.007-188.979-128.007-309.644a436.924 436.924 0 0 1 33.092-166.836l0.958-2.13c21.92-52.99 54.271-100.451 93.957-140.028 39.903-40.652 88.321-72.787 141.943-94.915 51.607-21.496 108.11-33.2 167.376-33.2 58.951 0 115.669 11.704 167.169 33.2l1.915 0.641c27.771 11.705 54.262 26.382 78.839 43.199l-2.123-42.142c-1.174-18.298 12.978-34.049 31.394-34.898 17.874-0.85 33.934 12.978 34.899 31.286l6.593 115.977c1.174 10.214-1.806 20.43-9.474 27.881-6.811 6.602-15.103 10.215-24.043 9.573l-116.085 7.235c-18.199 0.641-34.051-13.829-35.016-31.702-0.949-18.091 13.203-34.05 31.719-34.908l32.019-1.915c-17.45-10.847-35.64-20.639-54.264-28.297l-1.915-0.432c-37.771-15.96-78.847-25.326-121.83-27.449v58.309c0 10.856-8.517 20.006-19.797 20.006-10.856 0-20.114-9.15-20.114-20.006v-58.309c-42.666 2.123-84.05 11.489-121.613 27.449-9.158 3.405-17.882 7.45-26.391 12.138l10.324 17.449c5.744 9.574 1.914 21.704-7.027 27.448-9.89 5.112-21.703 1.706-27.456-8.083l-10.314-17.241c-21.496 14.477-41.609 30.437-59.7 48.735-18.19 17.874-34.475 38.52-48.411 59.798l17.449 10.009c9.366 5.744 12.771 17.657 7.343 27.239-5.745 9.781-17.771 12.762-27.24 7.235l-17.666-10.648c-4.037 8.309-7.767 16.6-11.597 25.324l-0.637 1.491c-15.431 37.888-24.792 78.747-27.452 121.946h58.842a19.525 19.525 0 0 1 19.581 19.572c0 11.072-8.725 20.221-19.581 20.221h-58.842c3.084 52.989 16.809 102.998 39.686 148.112l17.454-10.64c9.682-5.32 21.708-2.123 27.453 7.451 5.428 9.573 2.022 21.92-7.343 27.023l-17.449 10.431c13.936 21.495 30.22 41.502 48.411 59.8 18.091 18.515 38.413 34.898 59.7 48.735l10.314-17.874c5.753-9.365 17.566-12.347 27.456-6.81 8.941 5.103 12.771 17.449 7.027 26.382l-10.324 18.516c7.976 3.828 16.492 7.451 24.792 11.28l1.599 0.424c37.563 15.11 78.947 25.325 121.613 27.457v-58.31c0-11.28 9.258-20.005 20.114-20.005 11.28 0 19.797 8.725 19.797 20.005v58.31c53.415-2.557 103.207-16.601 148.005-39.586l-10.106-18.091c-5.212-8.933-2.132-21.279 7.559-26.382 9.466-5.537 21.704-2.556 26.915 6.81l10.115 17.874c21.486-14.261 41.809-30.221 59.791-48.735 18.198-18.298 34.69-38.305 49.052-59.8l-17.874-10.431c-9.467-5.104-12.979-17.45-7.334-26.815 5.419-9.148 17.657-12.763 27.131-7.659l17.449 10.64c4.255-8.509 8.084-16.384 11.598-24.893l0.748-1.489c15.532-37.247 24.998-78.531 27.338-121.731z" fill="#707070" p-id="1087"></path></svg>