<?xml version="1.0" standalone="no"?><!DOCTYPE svg PUBLIC "-//W3C//DTD SVG 1.1//EN" "http://www.w3.org/Graphics/SVG/1.1/DTD/svg11.dtd"><svg t="1582701162051" class="icon" viewBox="0 0 1027 1024" version="1.1" xmlns="http://www.w3.org/2000/svg" p-id="11165" xmlns:xlink="http://www.w3.org/1999/xlink" width="32.09375" height="32"><defs><style type="text/css"></style></defs><path d="M273.066667 682.666667c-95.573333 0-170.666667-75.093333-170.666667-170.666667s75.093333-170.666667 170.666667-170.666667 170.666667 75.093333 170.666666 170.666667-75.093333 170.666667-170.666666 170.666667z m0-307.2c-75.093333 0-136.533333 61.44-136.533334 136.533333s61.44 136.533333 136.533334 136.533333 136.533333-61.44 136.533333-136.533333-61.44-136.533333-136.533333-136.533333z" fill="#404040" p-id="11166"></path><path d="M747.52 785.066667H276.48C122.88 785.066667 0 662.186667 0 512s122.88-273.066667 276.48-273.066667H750.933333c150.186667 0 276.48 122.88 276.48 273.066667s-126.293333 273.066667-279.893333 273.066667zM276.48 273.066667C143.36 273.066667 34.133333 378.88 34.133333 512s109.226667 238.933333 242.346667 238.933333H750.933333c133.12 0 242.346667-105.813333 242.346667-238.933333S884.053333 273.066667 750.933333 273.066667H276.48z" fill="#404040" p-id="11167"></path><path d="M580.266667 614.4c-37.546667 0-68.266667-27.306667-68.266667-61.44v-85.333333c0-34.133333 30.72-61.44 68.266667-61.44s68.266667 27.306667 68.266666 61.44v85.333333c0 34.133333-30.72 61.44-68.266666 61.44z m0-170.666667c-17.066667 0-34.133333 10.24-34.133334 27.306667v85.333333c0 13.653333 17.066667 27.306667 34.133334 27.306667s34.133333-10.24 34.133333-27.306667v-85.333333c0-17.066667-17.066667-27.306667-34.133333-27.306667zM836.266667 614.4c-10.24 0-17.066667-6.826667-17.066667-17.066667v-170.666666c0-10.24 6.826667-17.066667 17.066667-17.066667h68.266666c10.24 0 17.066667 6.826667 17.066667 17.066667s-6.826667 17.066667-17.066667 17.066666H853.333333v153.6c0 10.24-6.826667 17.066667-17.066666 17.066667z" fill="#404040" p-id="11168"></path><path d="M870.4 512h-34.133333c-10.24 0-17.066667-6.826667-17.066667-17.066667s6.826667-17.066667 17.066667-17.066666h34.133333c10.24 0 17.066667 6.826667 17.066667 17.066666s-6.826667 17.066667-17.066667 17.066667zM699.733333 614.4c-10.24 0-17.066667-6.826667-17.066666-17.066667v-170.666666c0-10.24 6.826667-17.066667 17.066666-17.066667h68.266667c10.24 0 17.066667 6.826667 17.066667 17.066667s-6.826667 17.066667-17.066667 17.066666H716.8v153.6c0 10.24-6.826667 17.066667-17.066667 17.066667z" fill="#404040" p-id="11169"></path><path d="M733.866667 512h-34.133334c-10.24 0-17.066667-6.826667-17.066666-17.066667s6.826667-17.066667 17.066666-17.066666h34.133334c10.24 0 17.066667 6.826667 17.066666 17.066666s-6.826667 17.066667-17.066666 17.066667z" fill="#404040" p-id="11170"></path></svg>