<?xml version="1.0" standalone="no"?><!DOCTYPE svg PUBLIC "-//W3C//DTD SVG 1.1//EN" "http://www.w3.org/Graphics/SVG/1.1/DTD/svg11.dtd"><svg t="1582700663751" class="icon" viewBox="0 0 1024 1024" version="1.1" xmlns="http://www.w3.org/2000/svg" p-id="4686" xmlns:xlink="http://www.w3.org/1999/xlink" width="32" height="32"><defs><style type="text/css"></style></defs><path d="M768 699.733333H256c-51.694933 0-96.529067-18.619733-133.239467-55.3472C86.596267 608.221867 68.266667 563.677867 68.266667 512c0-51.6096 18.295467-96.4096 54.391466-133.137067C159.5904 342.562133 204.3904 324.266667 256 324.266667h512c51.694933 0 96.238933 18.3296 132.386133 54.493866C937.1136 415.470933 955.733333 460.305067 955.733333 512c0 51.746133-18.653867 96.341333-55.4496 132.488533C864.3584 681.0624 819.7632 699.733333 768 699.733333z m-3.8912-34.133333H768c42.871467 0 78.2336-14.7968 108.1344-45.243733C906.8032 590.2336 921.6 554.8544 921.6 512c0-42.9056-14.830933-78.592-45.346133-109.1072C846.318933 372.957867 810.922667 358.4 768 358.4h-4.0448c-41.3184 1.0752-75.7248 15.6672-105.147733 44.5952C628.974933 433.322667 614.4 469.0432 614.4 512c0 42.9056 14.557867 78.301867 44.4928 108.253867 29.457067 29.474133 63.880533 44.305067 105.216 45.346133zM256 358.4c-42.9568 0-78.677333 14.592-109.2096 44.5952C116.992 433.322667 102.4 469.0432 102.4 512c0 42.9056 14.557867 78.301867 44.4928 108.253867C177.408 650.769067 213.0944 665.6 256 665.6h403.626667a199.936 199.936 0 0 1-24.866134-21.213867C598.596267 608.221867 580.266667 563.677867 580.266667 512c0-51.626667 18.295467-96.4096 54.408533-133.137067 7.7312-7.611733 15.837867-14.4384 24.285867-20.462933H256z m256.853333 256c-6.331733 0-12.288-3.5328-15.240533-9.3696L443.733333 498.3296V597.333333a17.066667 17.066667 0 1 1-34.133333 0V426.666667a17.066667 17.066667 0 0 1 32.3072-7.697067L495.786667 525.653333V426.666667a17.066667 17.066667 0 0 1 34.133333 0v170.666666a17.066667 17.066667 0 0 1-17.066667 17.066667zM298.666667 614.4a58.5728 58.5728 0 0 1-42.786134-17.800533C244.6336 585.3696 238.933333 571.255467 238.933333 554.666667v-85.333334c0-16.366933 5.563733-30.6176 16.554667-42.359466 12.561067-11.810133 26.811733-17.373867 43.178667-17.373867 16.5888 0 30.702933 5.700267 41.9328 16.9472A58.641067 58.641067 0 0 1 358.4 469.333333v85.333334c0 16.571733-6.2976 31.214933-18.210133 42.3424-10.308267 11.093333-24.951467 17.390933-41.5232 17.390933z m0-170.666667c-7.645867 0-13.704533 2.338133-19.063467 7.355734-4.1984 4.539733-6.536533 10.5984-6.536533 18.244266v85.333334c0 7.406933 2.2016 13.073067 6.946133 17.800533 5.3248 5.307733 11.246933 7.799467 18.653867 7.799467 7.2704 0 12.629333-2.286933 17.390933-7.389867 5.9392-5.5808 8.209067-10.939733 8.209067-18.210133v-85.333334a24.917333 24.917333 0 0 0-7.799467-18.653866c-4.744533-4.744533-10.3936-6.946133-17.800533-6.946134z" p-id="4687" fill="#00a000"></path></svg>