<?xml version="1.0" standalone="no"?><!DOCTYPE svg PUBLIC "-//W3C//DTD SVG 1.1//EN" "http://www.w3.org/Graphics/SVG/1.1/DTD/svg11.dtd"><svg t="1582682268666" class="icon" viewBox="0 0 1024 1024" version="1.1" xmlns="http://www.w3.org/2000/svg" p-id="10801" width="140" height="140" xmlns:xlink="http://www.w3.org/1999/xlink"><defs><style type="text/css"></style></defs><path d="M512 1024C230.4 1024 0 793.6 0 512S230.4 0 512 0s512 230.4 512 512S793.6 1024 512 1024zM512 85.333333C277.333333 85.333333 85.333333 277.333333 85.333333 512s192 426.666667 426.666667 426.666667 426.666667-192 426.666667-426.666667S746.666667 85.333333 512 85.333333z" p-id="10802" fill="#d81e06"></path><path d="M341.333333 725.333333c-12.8 0-21.333333-4.266667-29.866667-12.8-17.066667-17.066667-17.066667-42.666667 0-59.733333l341.333333-341.333333c17.066667-17.066667 42.666667-17.066667 59.733333 0s17.066667 42.666667 0 59.733333l-341.333333 341.333333C362.666667 721.066667 354.133333 725.333333 341.333333 725.333333z" p-id="10803" fill="#d81e06"></path><path d="M682.666667 725.333333c-12.8 0-21.333333-4.266667-29.866667-12.8l-341.333333-341.333333c-17.066667-17.066667-17.066667-42.666667 0-59.733333s42.666667-17.066667 59.733333 0l341.333333 341.333333c17.066667 17.066667 17.066667 42.666667 0 59.733333C704 721.066667 695.466667 725.333333 682.666667 725.333333z" p-id="10804" fill="#d81e06"></path></svg>