<?xml version="1.0" standalone="no"?><!DOCTYPE svg PUBLIC "-//W3C//DTD SVG 1.1//EN" "http://www.w3.org/Graphics/SVG/1.1/DTD/svg11.dtd"><svg t="1582682508940" class="icon" viewBox="0 0 1024 1024" version="1.1" xmlns="http://www.w3.org/2000/svg" p-id="11803" width="140" height="140" xmlns:xlink="http://www.w3.org/1999/xlink"><defs><style type="text/css"></style></defs><path d="M783.333333 288.333333 427.5 649.166667 246.666667 468.333333l-53.333333 51.666667 230.833333 232.5L833.333333 340 783.333333 288.333333zM423.333333 752.5 423.333333 752.5 423.333333 752.5zM512.5 0C230 0 0 229.166667 0 511.666667s229.166667 511.666667 511.666667 511.666667 511.666667-229.166667 511.666667-511.666667S795.833333 0 512.5 0zM512.5 960.833333c-247.5 0-448.333333-200.833333-448.333333-448.333333S265 63.333333 512.5 63.333333s448.333333 200.833333 448.333333 448.333333S760 960.833333 512.5 960.833333z" p-id="11804" fill="#1afa29"></path></svg>